<?xml version="1.0" encoding="UTF-8"?>
<!-- Generator: Adobe Illustrator 16.0.0, SVG Export Plug-In . SVG Version: 6.00 Build 0)  -->
<!DOCTYPE svg PUBLIC "-//W3C//DTD SVG 1.1//EN" "http://www.w3.org/Graphics/SVG/1.1/DTD/svg11.dtd">
<svg version="1.1" id="Layer_1" xmlns="http://www.w3.org/2000/svg" xmlns:xlink="http://www.w3.org/1999/xlink" x="0px" y="0px" width="350px" height="51px" viewBox="0 0 350 51" enable-background="new 0 0 350 51" xml:space="preserve">
<g>
	<g>
		<path fill="#343333" d="M337.32,1.89c4.24-1.83,9.4,2.1,8.66,6.68c-0.33,4.8-6.69,7.36-10.32,4.27    C331.74,10.11,332.77,3.35,337.32,1.89z M334.88,9.42c0.88,2.96,4.2,3.46,6.84,3.53c0.16-0.47,0.49-1.4,0.66-1.87    c-1.73-0.45-2.71-2.05-4.04-3.09c-0.07,0.84-0.2,2.53-0.27,3.38c-2.6-1.04-0.82-4.83-1.31-7.06c1.65,0.14,3.4-0.1,4.99,0.49    c1.12,1.59-0.65,3.67-0.38,5.42c1.04,0.18,2.07,0.35,3.12,0.51c0.2-2.57,0.25-5.93-2.49-7.23C338.34,1.21,333.23,5.34,334.88,9.42    z M338.08,5.63c-1.22,1.54,1.65,2.76,2.59,1.49C341.89,5.55,339.03,4.38,338.08,5.63z"/>
	</g>
	<path fill="#343333" d="M75.22,7.79c2.68-1.41,7.32-0.78,7.88,2.73c0.25,5.13-7.76,7.71-10.75,3.67   C70.78,11.74,72.86,8.75,75.22,7.79z"/>
	<path fill="#343333" d="M156.98,9.47c3.57-1.07,7.34-0.74,11.01-0.79c5.38,0.14,11.21-0.86,15.99,2.27   c6.56-3.34,14.03-2.01,21.09-2.28c3.89-0.16,8.32,0.7,10.75,4.04c2.18,2.96,1.71,6.9,0.76,10.23c-2.04,7.35-3.95,14.73-6,22.07   c-0.93,3.87-5.49,6.97-9.34,5.24c-2.08-1.02-2.41-3.64-1.7-5.63c2.13-8.11,4.43-16.16,6.51-24.28c-4.26-1.2-8.75-0.34-13.11-0.61   c-2.15,0.17-5.5-0.59-6.37,2.1c-2.4,7.83-4.2,15.85-6.56,23.69c-1,3.3-4.62,5.78-8.07,5.11c-2.3-0.38-3.69-2.97-2.96-5.14   c2.04-8.48,4.7-16.81,6.64-25.31c-4.82-0.85-9.73-0.27-14.6-0.44c-1.91,0.04-4.75-0.22-5.38,2.17c-2.34,7.77-4.16,15.7-6.47,23.48   c-1.03,3.63-5.34,6.43-9.02,4.94c-2.18-0.91-2.62-3.61-1.9-5.64c1.95-7.35,3.97-14.69,5.95-22.03   C145.81,16.45,150.76,11.18,156.98,9.47z"/>
	<path fill="#343333" d="M98.38,10.11c4.38-1.54,9.06-1.05,13.61-1.11c7.98,0.05,15.97-0.1,23.96,0.05   c2.39-0.17,4.41,2.16,4.04,4.49c-0.41,3.82-4.18,6.73-7.96,6.52c-10,0.04-20.01-0.03-30.01,0c-1.55,0.13-3.79,0.24-4.29,2.06   c-1.5,5.1-3.02,10.22-4.08,15.44c-0.3,1.92,2.02,2.02,3.33,2.05c10.03,0.07,20.06-0.05,30.09,0.03c1.96-0.18,4.1,0.92,4.52,2.96   c0.83,4.31-3.43,8.29-7.63,8.06c-10.32,0.04-20.65,0.07-30.97-0.02c-4.81,0.09-10.09-2.92-10.72-8.04   c-0.66-6.22,2.29-12.06,3.53-18.05C87.05,17.92,91.86,12.09,98.38,10.11z"/>
	<path fill="#343333" d="M245.39,11.91c1.81-2.08,4.76-3.63,7.52-2.56c1.83,0.64,2.17,2.75,2.88,4.3   c3.51,9.78,7.21,19.49,10.77,29.25c1.53,3.84-1.95,7.32-5.27,8.6h-2.91c-1.12-0.69-2.35-1.4-2.62-2.81   c-2.89-8.69-5.6-17.44-8.48-26.14c-6.91,8.16-14.18,16.01-21.17,24.1c-1.71,1.89-3.45,4.18-6.17,4.52   c-2.38,0.56-5.18-1.08-5.23-3.67c-0.24-2.77,1.93-4.78,3.64-6.63C227.43,31.28,236.38,21.57,245.39,11.91z"/>
	<path fill="#343333" d="M289.36,9.95C295.74,8.18,302.47,9.32,309,9c5.54,0.3,11.61-1.03,16.66,1.87   c4.06,2.37,4.94,7.76,3.91,12.01c-1.93,7.38-3.96,14.74-5.95,22.11c-0.81,3.75-4.69,6.72-8.55,6.02c-2.53-0.4-3.92-3.26-3.03-5.58   c1.81-7.33,4.03-14.57,5.84-21.91c0.52-1.66,0.21-4.02-1.9-4.26c-6.65-0.35-13.33,0-19.99-0.16c-2.31,0.02-5.98-0.39-6.65,2.55   c-2.24,7.91-4.23,15.89-6.48,23.79c-0.99,3.97-5.92,7.04-9.76,5.04c-2.14-1.15-2.19-3.88-1.49-5.91   c2.02-7.38,3.97-14.78,6.01-22.15C279.14,16.64,283.7,11.83,289.36,9.95z"/>
	<path fill="#343333" d="M72.16,18.79c2.04-0.94,4.93-0.81,6.25,1.23c1.14,1.67,0.43,3.74,0,5.51c-1.93,6.59-3.61,13.25-5.58,19.82   c-1.04,3.56-5.16,6.28-8.81,5.02c-2.35-0.82-2.91-3.73-2.07-5.84c1.8-6.66,3.69-13.29,5.51-19.94   C68.04,22.06,69.72,19.78,72.16,18.79z"/>
</g>
<g>
	<path fill="#EB2027" d="M9.81,15.27c0.72-4.08,4.97-7.53,9.15-6.4c2.22,0.62,3.36,3.18,2.68,5.31c-2.1,8.39-4.44,16.72-6.62,25.08   c14.13,0.13,28.84,3.01,40.49,11.45C41,50.78,26.49,50.75,11.98,50.73C6.7,50.98,1.7,45.94,3.16,40.56   C5.22,32.1,7.63,23.71,9.81,15.27z"/>
</g>
</svg>